<svg xmlns="http://www.w3.org/2000/svg" xmlns:xlink="http://www.w3.org/1999/xlink" version="1.1" x="0px" y="0px" viewBox="0 0 100 125" enable-background="new 0 0 100 100" xml:space="preserve"><path d="M12.9,32c-2.8-0.9-5-3.1-5.8-5.9L5,18.4c0,0,22.2,14,54.1,18.9c2.6,0.4,4.7,2.2,5.5,4.7  c2.4,7.9,9.3,24,24.7,19.3c9.3-2.9,4.9,11.3,3.5,15.2c-0.1,0.4-0.6,0.4-0.8,0l-1.9-4.7c-0.1-0.1-0.3-0.1-0.4,0.1l-0.3,1.2  c-0.7,2.5-2.4,4.5-4.8,5.5l-0.3,0.1l-0.1-5.9c0-0.2-0.3-0.3-0.4-0.1L83.1,75c-0.9,2.9-3.3,5-6.2,5.7l0,0l2-8.1  c0.1-0.2-0.3-0.4-0.4-0.2l-2.8,4.6c-1.2,2-3.2,3.4-5.5,3.9l-2.6,0.6l4.7-10.3c0.1-0.2-0.2-0.4-0.4-0.3l-4.8,5.2  c-1.5,1.6-3.5,2.6-5.6,2.8l-5.4,0.5L65,69.3c0.2-0.2-0.1-0.5-0.3-0.3l-7.1,5.2c-1.6,1.1-3.5,1.7-5.4,1.7l-8.9-0.3l15.2-11.8  c0.2-0.2,0-0.5-0.2-0.4l-15.9,6.8c-2.4,1-5.2,0.9-7.5-0.3l-6.6-3.5L52,57.5c0.3-0.1,0.2-0.5-0.1-0.4l-20.8,3.7  c-2.3,0.4-4.7-0.2-6.6-1.6L16.2,53L45.9,50c0.5-0.1,0.5-0.8,0-0.9l-29.3-2.7c-3.2-0.3-5.9-2.3-7.2-5.2l-2.3-5.5l30.7,5.1  c0.5,0.1,0.7-0.7,0.2-0.8L12.9,32z"/><text x="0" y="115" fill="#000000" font-size="5px" font-weight="bold" font-family="'Helvetica Neue', Helvetica, Arial-Unicode, Arial, Sans-serif">Created by Jules Dominic</text><text x="0" y="120" fill="#000000" font-size="5px" font-weight="bold" font-family="'Helvetica Neue', Helvetica, Arial-Unicode, Arial, Sans-serif">from the Noun Project</text></svg>